:SAMPLES-PER-SECOND 30
:FULLY-SPECIFIED
:DEGREES
239
root  -15.931 25.4115 41.1538 -161.845 51.6011 -179.377
RightUpLeg  -10.7109 -25.5234 -1.41511
RightLeg  75.8694 -1.24449 -4.12653
RightFoot  -5.0819 0.0558929 1.63722
RightToes  -43.7516 -0.249125 -0.335319
Spine  14.9487 7.45665 -8.24265
Spine1  24.736 20.7563 -17.7601
HEad  5.29008 -6.67439 16.556
LeftShoulder1  0 -2.42657e-020 -4.95415e-022
LeftArm  -43.7973 -2.45965 -73.3612
LeftForeArm  28.0982 -34.4986 -6.95575
LeftHand  0.900452 -7.29523 -14.4378
RightShoulder  0 2.42657e-020 1.07489e-018
RightArm  -33.1757 18.0213 99.9609
RightForeArm  61.9359 13.1137 2.30312
RightHand  -1.84518 23.5845 -8.45388
LeftUpLeg  -76.7976 -5.92216 12.4619
LeftLeg  73.9563 -11.8683 -29.8546
LeftFoot  -2.65837 0.0459232 1.979
LeftToes  -50.1775 8.63562e-007 1.17448e-007
240
root  -14.5605 26.4729 41.3298 -160.318 46.9498 -179.516
RightUpLeg  -16.9727 -29.0538 0.668868
RightLeg  75.7859 -2.91025 -9.18357
RightFoot  -8.2177 0.155291 2.53924
RightToes  -42.7749 -0.241021 -0.330254
Spine  14.9188 7.52187 -7.81917
Spine1  24.8953 20.594 -17.5305
HEad  3.87038 -8.70257 19.1234
LeftShoulder1  0 -2.42657e-020 -4.95415e-022
LeftArm  -46.7876 -0.259286 -69.9279
LeftForeArm  19.7223 -40.8556 -8.77476
LeftHand  1.19913 -7.29428 -19.0347
RightShoulder  0 2.42657e-020 1.07489e-018
RightArm  -33.5864 16.6064 98.4852
RightForeArm  52.4 15.8554 2.83763
RightHand  -1.9363 23.4831 -8.92882
LeftUpLeg  -74.6298 -9.33016 15.1604
LeftLeg  69.2906 -14.4419 -28.8247
LeftFoot  -2.6615 0.0420454 1.80979
LeftToes  -51.2514 8.63562e-007 1.17448e-007
241
root  -13.2555 27.4324 41.5003 -159.039 43.8284 -179.465
RightUpLeg  -22.9396 -31.5153 0.963869
RightLeg  75.2907 -4.50706 -13.523
RightFoot  -12.9887 0.453558 4.36051
RightToes  -34.1689 -0.173657 -0.279871
Spine  15.0204 7.67977 -7.28997
Spine1  25.2626 20.679 -16.9476
HEad  2.94582 -9.83549 20.1715
LeftShoulder1  0 -2.42657e-020 -4.95415e-022
LeftArm  -46.1196 1.10646 -66.7994
LeftForeArm  17.8175 -46.7459 -10.8143
LeftHand  1.31385 -6.87735 -21.9981
RightShoulder  0 2.42657e-020 1.07489e-018
RightArm  -35.9522 16.4491 96.4349
RightForeArm  44.8967 17.3246 3.13187
RightHand  -1.22499 23.588 -5.49329
LeftUpLeg  -72.1325 -12.0445 18.1371
LeftLeg  64.4273 -16.4324 -26.8059
LeftFoot  -2.84558 0.0412315 1.65993
LeftToes  -51.2393 8.63562e-007 1.17448e-007
242
root  -12.018 28.1853 41.6802 -157.837 41.9432 -179.1
RightUpLeg  -28.4427 -32.0139 -0.0603208
RightLeg  73.8006 -5.08646 -13.9734
RightFoot  -14.3101 0.561092 4.84525
RightToes  -32.6274 -0.162426 -0.269806
Spine  14.8164 7.74755 -6.6792
Spine1  25.0482 20.5671 -16.1548
HEad  2.96709 -10.4891 20.3139
LeftShoulder1  0 -2.42657e-020 -4.95415e-022
LeftArm  -46.4009 3.50695 -64.8817
LeftForeArm  16.138 -53.3208 -13.7231
LeftHand  1.42993 -6.27549 -26.0467
RightShoulder  0 2.42657e-020 1.07489e-018
RightArm  -37.6494 15.8676 94.3059
RightForeArm  40.6043 18.6489 3.39572
RightHand  -0.607754 23.1277 -2.60031
LeftUpLeg  -69.5749 -12.7996 20.2921
LeftLeg  60.4412 -18.291 -25.5971
LeftFoot  -3.04583 0.0432386 1.62624
LeftToes  -51.3271 8.63562e-007 1.17448e-007
243
root  -10.8266 28.6867 41.8428 -157.111 40.7336 -178.559
RightUpLeg  -32.3109 -30.9141 -2.72075
RightLeg  70.8082 -4.97322 -11.7748
RightFoot  -15.6913 0.583235 4.60849
RightToes  -32.843 -0.16398 -0.271232
Spine  14.5528 7.65088 -6.11352
Spine1  24.6963 20.1384 -15.3634
HEad  3.50668 -10.424 19.9168
LeftShoulder1  0 -2.42657e-020 -4.95415e-022
LeftArm  -47.0202 6.69463 -63.578
LeftForeArm  15.7399 -60.4229 -18.1599
LeftHand  1.54831 -5.71334 -30.7092
RightShoulder  0 2.42657e-020 1.07489e-018
RightArm  -37.7416 15.1524 92.4997
RightForeArm  39.2368 20.12 3.68907
RightHand  -0.969565 25.0931 -3.98565
LeftUpLeg  -66.8786 -11.9931 21.4461
LeftLeg  57.8756 -20.3394 -25.734
LeftFoot  -3.38706 0.0539202 1.82354
LeftToes  -52.4745 8.63562e-007 1.17448e-007
244
root  -9.66421 28.9917 41.9773 -157.206 39.8702 -178.397
RightUpLeg  -34.5684 -28.972 -6.91949
RightLeg  66.4093 -4.62116 -9.00629
RightFoot  -16.5589 0.531388 4.02822
RightToes  -33.1138 -0.16594 -0.273014
Spine  14.3586 7.40134 -5.55455
Spine1  24.4453 19.4655 -14.6692
HEad  3.77506 -9.8876 19.4751
LeftShoulder1  0 -2.42657e-020 -4.95415e-022
LeftArm  -47.8067 9.26647 -62.3974
LeftForeArm  13.7616 -65.1188 -22.4308
LeftHand  1.58225 -4.9749 -35.6841
RightShoulder  0 2.42657e-020 1.07489e-018
RightArm  -36.3959 14.3059 90.7764
RightForeArm  39.7989 22.0537 4.0808
RightHand  -1.31436 24.9229 -5.57394
LeftUpLeg  -64.0389 -11.2971 22.2611
LeftLeg  55.9049 -22.1344 -25.9341
LeftFoot  -4.08407 0.0812482 2.2784
LeftToes  -53.9605 8.63562e-007 1.17448e-007
